<svg width="48" height="48" viewBox="0 0 48 48" fill="none" xmlns="http://www.w3.org/2000/svg">
<path d="M15.5 26C16.163 26 16.7989 25.7366 17.2678 25.2678C17.7366 24.7989 18 24.163 18 23.5C18 22.837 17.7366 22.2011 17.2678 21.7322C16.7989 21.2634 16.163 21 15.5 21C14.837 21 14.2011 21.2634 13.7322 21.7322C13.2634 22.2011 13 22.837 13 23.5C13 24.163 13.2634 24.7989 13.7322 25.2678C14.2011 25.7366 14.837 26 15.5 26ZM26.5 23.5C26.5 24.163 26.2366 24.7989 25.7678 25.2678C25.2989 25.7366 24.663 26 24 26C23.337 26 22.7011 25.7366 22.2322 25.2678C21.7634 24.7989 21.5 24.163 21.5 23.5C21.5 22.837 21.7634 22.2011 22.2322 21.7322C22.7011 21.2634 23.337 21 24 21C24.663 21 25.2989 21.2634 25.7678 21.7322C26.2366 22.2011 26.5 22.837 26.5 23.5ZM32.5 26C33.163 26 33.7989 25.7366 34.2678 25.2678C34.7366 24.7989 35 24.163 35 23.5C35 22.837 34.7366 22.2011 34.2678 21.7322C33.7989 21.2634 33.163 21 32.5 21C31.837 21 31.2011 21.2634 30.7322 21.7322C30.2634 22.2011 30 22.837 30 23.5C30 24.163 30.2634 24.7989 30.7322 25.2678C31.2011 25.7366 31.837 26 32.5 26ZM18 31.5C18 32.163 17.7366 32.7989 17.2678 33.2678C16.7989 33.7366 16.163 34 15.5 34C14.837 34 14.2011 33.7366 13.7322 33.2678C13.2634 32.7989 13 32.163 13 31.5C13 30.837 13.2634 30.2011 13.7322 29.7322C14.2011 29.2634 14.837 29 15.5 29C16.163 29 16.7989 29.2634 17.2678 29.7322C17.7366 30.2011 18 30.837 18 31.5ZM24 34C24.663 34 25.2989 33.7366 25.7678 33.2678C26.2366 32.7989 26.5 32.163 26.5 31.5C26.5 30.837 26.2366 30.2011 25.7678 29.7322C25.2989 29.2634 24.663 29 24 29C23.337 29 22.7011 29.2634 22.2322 29.7322C21.7634 30.2011 21.5 30.837 21.5 31.5C21.5 32.163 21.7634 32.7989 22.2322 33.2678C22.7011 33.7366 23.337 34 24 34ZM6 12.25C6 10.5924 6.65848 9.00269 7.83058 7.83058C9.00269 6.65848 10.5924 6 12.25 6H35.75C37.4076 6 38.9973 6.65848 40.1694 7.83058C41.3415 9.00269 42 10.5924 42 12.25V35.75C42 37.4076 41.3415 38.9973 40.1694 40.1694C38.9973 41.3415 37.4076 42 35.75 42H12.25C10.5924 42 9.00269 41.3415 7.83058 40.1694C6.65848 38.9973 6 37.4076 6 35.75V12.25ZM12.25 8.5C11.2554 8.5 10.3016 8.89509 9.59835 9.59835C8.89509 10.3016 8.5 11.2554 8.5 12.25V14H39.5V12.25C39.5 11.2554 39.1049 10.3016 38.4016 9.59835C37.6984 8.89509 36.7446 8.5 35.75 8.5H12.25ZM8.5 35.75C8.5 36.7446 8.89509 37.6984 9.59835 38.4016C10.3016 39.1049 11.2554 39.5 12.25 39.5H35.75C36.7446 39.5 37.6984 39.1049 38.4016 38.4016C39.1049 37.6984 39.5 36.7446 39.5 35.75V16.5H8.5V35.75Z" fill="#3B3B3B"/>
</svg>
